<svg xmlns="http://www.w3.org/2000/svg" width="750" height="351" viewBox="0 0 750 351">
  <g id="maplat-logo-w" transform="translate(-266 -408)">
    <rect id="長方形_7" data-name="長方形 7" width="750" height="351" transform="translate(266 408)" fill="none"/>
    <g id="グループ_2" data-name="グループ 2" transform="translate(0.937 87.615)">
      <path id="パス_1" data-name="パス 1" d="M495.217,440.046a9.649,9.649,0,0,0-15.207,2.521l-39.461,81.121-40.562-81.245a9.648,9.648,0,0,0-15.141-2.4,9.184,9.184,0,0,0-2.783,6.868V543.65a9.53,9.53,0,1,0,19.059,0V482.839l30.161,60.439a9.25,9.25,0,0,0,8.749,5.615,9.515,9.515,0,0,0,8.187-4.666l30.723-62.582V543.65a9.525,9.525,0,0,0,16.2,6.795A9.126,9.126,0,0,0,498,543.65V446.915A9.185,9.185,0,0,0,495.217,440.046Z" fill="#fff"/>
      <path id="パス_2" data-name="パス 2" d="M588.092,490.729a41.032,41.032,0,0,0-14.824-14.974h0a41.639,41.639,0,0,0-57.106,14.974,41.98,41.98,0,0,0-5.5,21.343,44.358,44.358,0,0,0,5.036,21.209A39.271,39.271,0,0,0,529.5,548.212a38.291,38.291,0,0,0,39.674,0,37.116,37.116,0,0,0,5.641-4.374v.1a9.387,9.387,0,1,0,18.772,0V512.072A41.976,41.976,0,0,0,588.092,490.729ZM552.2,536.692a22.513,22.513,0,0,1-11.845-3.2,23.244,23.244,0,0,1-8.394-8.793,25.759,25.759,0,0,1-3.1-12.629,26.078,26.078,0,0,1,3.1-12.775,23.278,23.278,0,0,1,8.393-8.791,23.669,23.669,0,0,1,23.75-.007,22.97,22.97,0,0,1,8.253,8.782,26.59,26.59,0,0,1,3.034,12.791,26.26,26.26,0,0,1-3.034,12.646A22.936,22.936,0,0,1,564.1,533.5,22.423,22.423,0,0,1,552.2,536.692Z" fill="#fff"/>
      <path id="パス_3" data-name="パス 3" d="M743.728,537.392a7.982,7.982,0,0,0-6.208-2.7h-3.573c-.832,0-2.082-.247-3.331-2.389a15.136,15.136,0,0,1-1.714-7.658V446.629a9.245,9.245,0,1,0-18.487,0v78.016a34.67,34.67,0,0,0,2.905,14.52,24.914,24.914,0,0,0,8.272,10.2,20.977,20.977,0,0,0,12.355,3.814h.287a13.582,13.582,0,0,0,8.247-2.409,8.261,8.261,0,0,0,3.567-6.834A9.5,9.5,0,0,0,743.728,537.392Z" fill="#fff"/>
      <path id="パス_4" data-name="パス 4" d="M829,490.729a41.038,41.038,0,0,0-14.826-14.974h0a41.637,41.637,0,0,0-57.1,14.974,41.958,41.958,0,0,0-5.5,21.343,44.358,44.358,0,0,0,5.035,21.209,39.275,39.275,0,0,0,13.8,14.931,37.146,37.146,0,0,0,45.317-4.377v.1a9.387,9.387,0,1,0,18.772,0V512.072A41.977,41.977,0,0,0,829,490.729Zm-35.9,45.963a22.518,22.518,0,0,1-11.845-3.2,23.267,23.267,0,0,1-8.4-8.792,25.773,25.773,0,0,1-3.095-12.63,26.086,26.086,0,0,1,3.095-12.774,23.316,23.316,0,0,1,8.4-8.792,23.672,23.672,0,0,1,23.752-.007,22.964,22.964,0,0,1,8.251,8.782,26.573,26.573,0,0,1,3.034,12.791,26.265,26.265,0,0,1-3.032,12.646h0a22.925,22.925,0,0,1-8.251,8.783A22.426,22.426,0,0,1,793.1,536.692Z" fill="#fff"/>
      <path id="パス_5" data-name="パス 5" d="M895.621,537.4l0,0a7.68,7.68,0,0,0-5.922-2.7h-4.859a7.534,7.534,0,0,1-6.088-3.085,12.5,12.5,0,0,1-2.673-8.247V490.165h10.047a8.932,8.932,0,0,0,6.283-2.272,7.744,7.744,0,0,0,2.532-5.828,7.973,7.973,0,0,0-2.532-6.115,8.943,8.943,0,0,0-6.283-2.272H876.074V455.2a9.245,9.245,0,1,0-18.487,0v18.476h-4.473a8.941,8.941,0,0,0-6.283,2.272,7.972,7.972,0,0,0-2.532,6.115,7.64,7.64,0,0,0,2.532,5.828,8.93,8.93,0,0,0,6.283,2.272h4.473V523.36a32.28,32.28,0,0,0,3.526,15.119,27.749,27.749,0,0,0,9.733,10.727,25.581,25.581,0,0,0,13.989,3.973h2.571a11.135,11.135,0,0,0,7.433-2.5,8.594,8.594,0,0,0,3.1-6.744A9.518,9.518,0,0,0,895.621,537.4Z" fill="#fff"/>
      <path id="パス_6" data-name="パス 6" d="M687.97,490.729a41.038,41.038,0,0,0-14.826-14.974h0a43.344,43.344,0,0,0-42.281,0A40.476,40.476,0,0,0,616.1,490.74a43.517,43.517,0,0,0-5.564,21.332v65.157a9.527,9.527,0,0,0,16.185,6.673l47.9-35.69a39.318,39.318,0,0,0,13.809-14.931,44.379,44.379,0,0,0,5.035-21.209A42,42,0,0,0,687.97,490.729Zm-15.8,33.973a23.468,23.468,0,0,1-8.334,8.8,23.67,23.67,0,0,1-23.751-.007,22.732,22.732,0,0,1-8.315-8.776,26.265,26.265,0,0,1-3.032-12.646,26.573,26.573,0,0,1,3.034-12.791,22.475,22.475,0,0,1,20.158-11.973,22.442,22.442,0,0,1,11.906,3.191,23.5,23.5,0,0,1,8.334,8.8,26.113,26.113,0,0,1,3.095,12.775A25.8,25.8,0,0,1,672.171,524.7Z" fill="#fff"/>
    </g>
  </g>
</svg>
